<?xml version="1.0" encoding="UTF-8"?>
<!DOCTYPE svg PUBLIC "-//W3C//DTD SVG 1.1//EN" "http://www.w3.org/Graphics/SVG/1.1/DTD/svg11.dtd">
<!-- Creator: CorelDRAW 2020 (64-Bit Evaluation Version) -->
<svg xmlns="http://www.w3.org/2000/svg" xml:space="preserve" width="195.786mm" height="34.285mm" version="1.1" style="shape-rendering:geometricPrecision; text-rendering:geometricPrecision; image-rendering:optimizeQuality; fill-rule:evenodd; clip-rule:evenodd"
viewBox="0 0 19577.54 3428.31"
 xmlns:xlink="http://www.w3.org/1999/xlink"
 xmlns:xodm="http://www.corel.com/coreldraw/odm/2003">
 <defs>
  <style type="text/css">
   <![CDATA[
    .fil4 {fill:#192663;fill-rule:nonzero}
    .fil1 {fill:url(#id0);fill-rule:nonzero}
    .fil3 {fill:url(#id1);fill-rule:nonzero}
    .fil2 {fill:url(#id2);fill-rule:nonzero}
    .fil6 {fill:url(#id3);fill-rule:nonzero}
    .fil5 {fill:url(#id4);fill-rule:nonzero}
    .fil0 {fill:url(#id5);fill-rule:nonzero}
   ]]>
  </style>
  <linearGradient id="id0" gradientUnits="userSpaceOnUse" x1="8665.66" y1="1673.63" x2="19309.48" y2="1673.6">
   <stop offset="0" style="stop-opacity:1; stop-color:#192663"/>
   <stop offset="0.509804" style="stop-opacity:1; stop-color:#1E3676"/>
   <stop offset="1" style="stop-opacity:1; stop-color:#192663"/>
  </linearGradient>
  <linearGradient id="id1" gradientUnits="userSpaceOnUse" x1="10708.2" y1="3147.53" x2="17169.23" y2="3147.49">
   <stop offset="0" style="stop-opacity:1; stop-color:#D49649"/>
   <stop offset="0.470588" style="stop-opacity:1; stop-color:#CCA85C"/>
   <stop offset="1" style="stop-opacity:1; stop-color:#CE9A4E"/>
  </linearGradient>
  <linearGradient id="id2" gradientUnits="userSpaceOnUse" x1="4050.87" y1="925.73" x2="4050.91" y2="445.41">
   <stop offset="0" style="stop-opacity:1; stop-color:#DA9F4F"/>
   <stop offset="1" style="stop-opacity:1; stop-color:#FFDA93"/>
  </linearGradient>
  <linearGradient id="id3" gradientUnits="userSpaceOnUse" x1="465.06" y1="3146.99" x2="7613.23" y2="3146.81">
   <stop offset="0" style="stop-opacity:1; stop-color:#D59B4D"/>
   <stop offset="0.509804" style="stop-opacity:1; stop-color:#FFDA93"/>
   <stop offset="1" style="stop-opacity:1; stop-color:#D89E4E"/>
  </linearGradient>
  <linearGradient id="id4" gradientUnits="userSpaceOnUse" x1="3183.92" y1="1931.52" x2="4963.79" y2="1931.52">
   <stop offset="0" style="stop-opacity:1; stop-color:#D59B4D"/>
   <stop offset="0.509804" style="stop-opacity:1; stop-color:#F0C47B"/>
   <stop offset="1" style="stop-opacity:1; stop-color:#D89E4E"/>
  </linearGradient>
  <linearGradient id="id5" gradientUnits="userSpaceOnUse" x1="72.03" y1="987.73" x2="7956.19" y2="987.71">
   <stop offset="0" style="stop-opacity:1; stop-color:#D69B4D"/>
   <stop offset="0.509804" style="stop-opacity:1; stop-color:#F4C97F"/>
   <stop offset="1" style="stop-opacity:1; stop-color:#D99E4E"/>
  </linearGradient>
 </defs>
 <g id="Layer_x0020_1">
  <metadata id="CorelCorpID_0Corel-Layer"/>
  <g id="_2226955781536">
   <path class="fil0" d="M8079.07 1824.46c-61.07,-54 -121.73,-108.48 -183.78,-161.35 -75.1,-64.01 -153.31,-124.15 -232.25,-183.42 -104.87,-78.74 -212.59,-153.23 -322.45,-224.71 -58.12,-37.81 -116.52,-75.24 -175.73,-111.32 -238.46,-145.42 -485.94,-273.59 -742.57,-383.71 -147.23,-63.18 -297.3,-119.2 -449.17,-170.47 -182.58,-61.64 -367.85,-113.92 -555.29,-158.11 -178.47,-42.09 -358.13,-79.23 -540.09,-102.9 -146.72,-19.1 -293.93,-33.95 -441.79,-43.14 -160.27,-9.96 -320.51,-10.17 -480.82,-6.69 -104.78,2.27 -209.44,9.59 -313.77,19.88 -113.51,11.19 -226.9,23.58 -339.48,42.52 -188.47,31.69 -375.95,68.34 -560.84,117.01 -240,63.19 -476.32,137.59 -706.52,231.15 -141.35,57.44 -280.78,118.65 -417.97,185.48 -130.32,63.48 -257.89,131.68 -382.99,204.8 -159.78,93.36 -315.97,192.18 -466.84,299.41 -159.73,113.54 -313.87,234.26 -460.64,364.02 -92.4,81.7 -181.67,166.95 -267.84,255.34 -10.07,10.32 -19.11,22.24 -38.24,32.87 4.12,-18.85 12.32,-27.69 19.31,-36.86 72.98,-95.63 148.83,-188.91 228.96,-278.69 95.53,-107.06 195.6,-209.78 298.48,-309.7 142.85,-138.76 294.81,-266.78 455.09,-385.14 187.54,-138.49 384.31,-262.17 587.57,-376.17 121.15,-67.95 247.03,-125.73 372.98,-183.62 231.52,-106.38 471.54,-189.4 716.34,-258.81 167.53,-47.51 337.2,-86.36 508.59,-117.62 90.96,-16.59 181.9,-33.35 273.81,-43.59 79.65,-8.87 159.56,-15.33 239.32,-23.22 175.21,-17.34 350.95,-19.27 526.77,-16.82 161.96,2.26 323.09,15.71 484.16,33.19 147.35,16 293.06,41.14 438.15,69.56 255.79,50.12 506.47,119.53 752.73,205.56 234.68,81.99 461.75,181.23 681.8,296.14 187.21,97.76 369.4,204.24 543.15,325.06 190.18,132.24 373.07,273.5 544.36,429.34 101.5,92.33 198.82,189.19 291.53,290.55 48.75,53.3 97.53,106.57 142.89,162.79 25,30.99 51.89,58.54 76.08,91.06 2.31,3.12 5.96,8.19 -0.11,11.44 -2.03,1.08 -6.39,0.64 -8.04,-0.88 -34.48,-31.9 -60.89,-60.15 -94.84,-90.22z"/>
   <path class="fil1" d="M14311.81 1803.33c-44.37,-1.48 -84.27,-3.9 -124.17,-3.93 -121.78,-0.1 -243.56,0.53 -365.34,1.25 -47.28,0.27 -45.36,-3.29 -45.41,45.28 -0.09,97.11 -0.35,194.25 0.02,291.37 0.09,19.96 1,40.21 4.47,59.79 7.19,40.56 33.01,64.6 73.66,71.6 10.63,1.84 21.19,4.27 31.91,5.36 26.49,2.7 26.72,9.55 26.01,33.3 -0.26,8.59 -4.05,14.85 -13.31,15.46 -12.29,0.81 -24.62,1.32 -36.94,1.34 -131.03,0.14 -262.06,0.16 -393.09,0.22 -6.17,0 -12.34,-0.19 -18.5,-0.05 -27.83,0.59 -31.17,-2.74 -30.64,-32.05 0.2,-10.88 6.23,-16.93 16.35,-19.03 15.06,-3.14 30.27,-5.56 45.29,-8.86 33.62,-7.39 53.39,-28.41 60.62,-61.95 5.55,-25.69 9,-51.54 9.02,-77.89 0.13,-134.12 0.62,-268.25 0.63,-402.37 0,-94.04 -0.73,-188.09 -0.79,-282.13 -0.02,-32.5 -3.49,-64.54 -8.9,-96.53 -6.14,-36.34 -27.18,-57.62 -62.74,-65.08 -12.06,-2.53 -24.31,-4.16 -36.43,-6.46 -20.38,-3.87 -24.74,-10.21 -22.69,-31.53 0.84,-8.74 5.11,-14.62 13.75,-15.57 10.69,-1.17 21.53,-1.53 32.31,-1.54 134.11,-0.1 268.25,-0.08 402.37,-0.07 4.62,0 9.27,-0.15 13.88,0.17 13.39,0.94 17.71,5.69 19.23,20.76 1.84,18.12 -1.11,23.74 -16.17,27.47 -11.95,2.95 -24.12,5.05 -36.28,7 -36.44,5.84 -57.67,27.48 -64.6,63.05 -2.93,15.07 -4.9,30.56 -5.15,45.89 -1.54,94.01 -2.69,188.04 -3.43,282.07 -0.18,21.2 3.19,23.71 23.82,24.91 3.08,0.17 6.16,0.22 9.24,0.21 154.17,-0.19 308.33,-0.37 462.5,-0.66 9.24,0 18.48,-0.78 27.71,-1.32 9.51,-0.55 12.92,-6.92 13.84,-15.19 0.5,-4.58 0.43,-9.24 0.39,-13.86 -0.67,-89.41 -1.28,-178.81 -2.16,-268.21 -0.19,-20.09 -3.09,-39.84 -7.94,-59.44 -7.42,-30.08 -26.81,-47.96 -55.59,-55.92 -14.79,-4.09 -30.37,-5.22 -45.4,-8.54 -13.76,-3.04 -18.11,-11.13 -16.61,-28.02 1.18,-13.18 6.44,-18.57 20.7,-19.48 12.29,-0.78 24.65,-0.69 36.98,-0.72 126.42,-0.41 252.83,-0.78 379.24,-1.1 10.78,-0.03 21.62,-0.22 32.3,0.93 3.86,0.42 8.97,3.72 10.68,7.13 9.54,18.98 1.24,37.53 -18.81,42.03 -13.5,3.03 -27.41,4.23 -40.95,7.07 -30.1,6.33 -49.13,23.86 -54.98,54.91 -5.12,27.3 -9.67,54.52 -9.65,82.49 0.19,243.6 0.06,487.18 0.14,730.76 0,18.49 0.16,37.03 5.64,55.01 11.3,37.04 33.63,61.7 74.04,66.35 10.71,1.24 21.41,2.79 32.01,4.75 20.56,3.79 28.71,21.18 19.24,41.17 -1.9,3.98 -4.86,7.64 -10.38,7.71 -9.23,0.14 -18.47,0.96 -27.7,0.98 -137.21,0.12 -274.42,0.17 -411.63,0.23 -4.62,0 -9.25,0.06 -13.87,-0.13 -17.72,-0.71 -19.73,-2.66 -22.61,-21.52 -2.7,-17.55 0.06,-22.34 16.5,-26.39 11.96,-2.94 24.11,-5.09 36.18,-7.65 34.79,-7.39 58.43,-26.46 65.58,-62.75 2.07,-10.55 5.39,-21.04 5.9,-31.67 5.79,-121.59 3.51,-243.17 0.71,-370.41zm-3668.82 493.29c-0.41,-14.47 -4.19,-18.98 -18.04,-22.04 -4.5,-1 -9.07,-1.93 -13.67,-2.33 -56.62,-5.04 -92.85,-36.91 -115.32,-87.14 -10.71,-23.91 -22.2,-47.46 -32.42,-71.56 -67.95,-160.22 -135.91,-320.42 -203.29,-480.87 -31.61,-75.25 -61.64,-151.15 -92.85,-226.55 -27.71,-66.88 -56.22,-133.42 -84.03,-200.26 -4.14,-9.97 -10.66,-14.57 -21.03,-14.09 -18.49,0.84 -36.98,2.82 -55.45,2.57 -19.73,-0.27 -30.3,8.35 -38.09,26.48 -37.74,87.73 -77.18,174.73 -115.07,262.4 -33.61,77.74 -65.68,156.15 -98.97,234.03 -41.17,96.3 -82.92,192.35 -124.36,288.52 -22.57,52.35 -44.67,104.87 -67.73,157 -7.46,16.84 -17.01,32.79 -26.16,48.82 -14.43,25.29 -35.31,42.13 -64.3,48.67 -21.01,4.74 -41.72,10.91 -62.66,16.01 -8.96,2.19 -12.59,7.98 -12.96,16.36 -0.27,6.13 -0.16,12.32 0.35,18.43 0.58,6.96 5.03,11.18 11.69,11.74 10.74,0.92 21.56,1.34 32.35,1.33 109.49,-0.17 219,-0.39 328.49,-0.79 21.77,-0.09 25.36,-4.28 26.78,-27.53 0.65,-10.44 -2.13,-17.71 -13.97,-19.5 -16.74,-2.54 -33.79,-4.42 -49.98,-9.11 -36.44,-10.58 -54.28,-42.32 -43.79,-78.93 20.82,-72.77 53.94,-140.9 81.4,-211.18 4.2,-10.73 12.5,-15.92 24.96,-16.54 110.98,-5.64 221.99,-4.54 333.03,-2.67 17.99,0.31 28.06,7.35 35.15,23.22 32.11,71.84 56.33,146.67 84.22,220.09 0.54,1.44 0.78,2.99 1.13,4.49 7.53,32.82 -1.3,50.15 -32.6,60.97 -13.04,4.5 -26.91,6.59 -40.36,9.99 -6.76,1.71 -10.01,6.75 -10.25,13.38 -0.28,7.68 -0.21,15.39 0.31,23.05 0.5,7.26 5.53,10.52 12.27,10.82 9.24,0.41 18.49,0.38 27.73,0.39 64.78,0.02 129.55,0.02 194.32,0.02 0,-0.51 0,-1.03 0,-1.54 6.18,0 12.35,-0.04 18.51,0 66.33,0.51 132.63,0.82 198.95,1.67 19.82,0.26 26.4,-3.42 25.71,-27.82zm-814.25 -438.24l0 0c-0.7,-4.76 -2.35,-8.19 -1.39,-10.58 45.65,-114.18 91.52,-228.28 138.68,-345.66 21.56,39.62 31.39,81.08 47.8,119.77 16.22,38.22 31.49,76.84 47.07,115.31 16.01,39.54 34.98,78 47.42,121.15 -95.94,0 -187.9,0 -279.57,0zm9726.03 417.05c-7.54,-1.55 -15.14,-2.9 -22.76,-4.08 -53.31,-8.24 -99.22,-31.9 -140,-66.57 -30.66,-26.08 -58.04,-55.31 -82.53,-87.14 -50.75,-65.95 -101.29,-132.06 -151.34,-198.53 -23.16,-30.78 -45.03,-62.51 -67.32,-93.91 -5.65,-7.97 -3.34,-14.51 5.43,-18.13 28.57,-11.78 56.13,-25.61 81.75,-42.77 66.79,-44.75 113.19,-103.69 125.88,-185.31 13.21,-84.99 -3.17,-162.4 -59.41,-229.39 -57.49,-68.45 -133.88,-101.81 -219.74,-116.36 -44.08,-7.47 -88.7,-10.53 -133.54,-10.25 -66.28,0.42 -132.56,0.11 -198.85,0.11 0,0.14 0,0.29 0,0.42 -78.62,0 -157.23,-0.05 -235.84,0.06 -13.86,0.01 -27.75,0.39 -41.58,1.15 -6.68,0.36 -11.24,4.52 -12.62,11.19 -4.92,23.78 1.32,33.35 25.8,38.8 12.02,2.68 24.34,4.05 36.37,6.72 26.3,5.82 43.8,22.15 52.04,47.41 3.78,11.58 5.85,24.04 6.6,36.22 2.1,33.84 4.23,67.74 4.35,101.6 0.79,214.27 1.16,428.54 1.32,642.8 0.02,26.14 -0.67,52.25 -4.79,78.34 -7.13,45.22 -33.3,71.02 -76.87,80.96 -12.01,2.74 -24.18,4.99 -35.92,8.57 -3.63,1.1 -7.74,5.42 -8.85,9.11 -6.96,23.16 1.8,36.22 24.21,37.02 7.69,0.29 15.41,0.08 23.12,0.09 118.69,0.14 237.38,0.3 356.06,0.36 21.59,0 43.17,-0.06 64.74,-0.77 13.04,-0.42 18.46,-6.94 19.14,-20.74 0.89,-17.98 -4.31,-25.04 -22.17,-28.47 -12.09,-2.31 -24.4,-3.55 -36.56,-5.51 -47.08,-7.57 -73.06,-34.47 -78.1,-82.82 -2.55,-24.49 -3.83,-49.21 -3.92,-73.84 -0.18,-50.86 0.31,-101.73 1.53,-152.58 0.62,-25.86 -4.04,-52.02 3.39,-77.6 26.8,-10.28 54.52,-0.29 81.47,-3.61 28.34,-3.49 46.82,10.22 62.56,30.54 5.61,7.25 9.96,15.48 14.94,23.22 47.45,73.88 92.32,149.47 146.56,218.77 32.37,41.36 67.32,80.22 108.68,113.05 57.6,45.71 122.5,70.06 196.38,69.23 47.78,-0.51 95.54,-0.67 143.3,-2.08 18.39,-0.54 36.75,-3.73 55.01,-6.52 3.99,-0.6 8.86,-3.78 10.96,-7.21 9.88,-16.19 -0.13,-37.67 -18.89,-41.56zm-518.09 -589.07l0 0c-26.19,48.63 -69.24,77.68 -121.91,92.05 -49.72,13.57 -100.74,11.15 -151.56,9.86 -7.13,-0.19 -11.41,-4.36 -11.84,-11.34 -0.76,-12.28 -1.24,-24.6 -1.27,-36.9 -0.12,-58.54 -0.05,-117.07 -0.05,-175.61 0.14,0 0.28,0 0.43,0 0,-61.63 -0.05,-123.24 0.06,-184.86 0.01,-10.78 0.66,-21.54 1.07,-32.32 0.48,-12.9 8.35,-19.34 19.98,-21.7 7.51,-1.53 15.25,-2.49 22.91,-2.7 26.16,-0.72 52.36,-1.9 78.51,-1.29 108.39,2.55 171.81,66.54 194.58,163.96 16.59,71.02 2.97,137.99 -30.9,200.84zm-7207.75 609.63c-0.89,-16.42 -5.2,-21.51 -21.47,-24.82 -4.52,-0.93 -9.14,-1.5 -13.74,-1.83 -56.88,-4.12 -102.77,-31.03 -141.64,-70.5 -29.18,-29.63 -57.36,-60.38 -84.11,-92.21 -74.45,-88.6 -139.9,-184 -207.73,-277.59 -3.52,-4.86 -5.92,-10.52 -10.64,-19.07 45.07,-17.07 83.13,-37.22 116.89,-64.6 56.18,-45.56 92.13,-102.05 98.25,-176.29 2.43,-29.57 1.09,-58.43 -2.46,-87.49 -8.84,-72.46 -42.03,-131.23 -99.73,-175.99 -52.44,-40.68 -112.47,-63.59 -177.56,-73.06 -47.29,-6.87 -94.96,-9.78 -142.89,-9.6 -140.3,0.52 -280.6,0.23 -420.92,0.29 -12.33,0 -24.69,-0.14 -37,0.52 -17.48,0.94 -21.69,5.67 -21.58,22.56 0.13,21.39 4.31,26.34 26.18,30.39 6.06,1.12 12.28,1.29 18.33,2.4 42.87,7.79 59.85,25.29 69.68,68.61 9.66,42.54 9.92,85.75 10.02,128.81 0.5,206.61 0.38,413.22 -0.13,619.83 -0.09,33.86 -1.72,67.9 -5.48,101.53 -4.35,38.89 -28.21,63.25 -66.92,72.51 -11.97,2.86 -24.22,4.61 -36.41,6.31 -9.16,1.27 -13.52,6.48 -13.86,15.15 -1.1,27.96 -0.36,33.14 29.29,32.51 6.16,-0.13 12.33,0 18.5,0 129.5,0 259.03,0.01 388.53,-0.02 10.79,-0.01 21.61,0.05 32.37,-0.61 15.05,-0.93 19.07,-5.11 20.06,-19.31 1.29,-18.54 -2.16,-24.79 -16.29,-27.62 -15.09,-3.02 -30.28,-5.68 -45.49,-8.07 -43.35,-6.84 -67.71,-32.84 -77.25,-74.8 -4.49,-19.75 -5.58,-39.67 -5.74,-59.71 -0.56,-74.02 -0.94,-148.02 -1.19,-222.03 -0.04,-10.7 1.04,-21.4 1.78,-35.38 19.97,-3.28 40.08,-1.68 59.67,-4.21 46.28,-6 78.37,9.75 103.03,51.69 47.66,81.01 101.44,158.3 159.61,232.28 18.06,22.96 37.5,45.03 57.96,65.89 71.23,72.58 156.7,112.5 259.84,112 50.89,-0.25 101.75,-0.11 152.34,-6.17 25.22,-3.03 29.2,-8.63 27.89,-32.31zm-535.65 -605.37l0 0c-22.92,41.96 -57.03,71.37 -104.69,84.35 -54.29,14.79 -109.42,14.81 -164.84,13.32 -11.43,-0.32 -15.61,-7.8 -15.58,-18.48 0.01,-10.77 -0.33,-21.53 -0.34,-32.29 -0.03,-59.98 -0.01,-119.95 -0.01,-179.93 -0.26,0 -0.52,0 -0.78,0 0,-58.43 -0.05,-116.86 0.05,-175.3 0.02,-12.3 0.46,-24.59 1,-36.88 0.47,-10.72 6.94,-17.51 16.84,-18.79 59.82,-7.78 119.94,-11.87 177.94,8.8 60.76,21.66 99.91,66.43 116.92,127.56 21.88,78.71 12.79,155.69 -26.51,227.64zm796.89 633.8c-66.29,0 -132.55,0.05 -198.84,-0.04 -10.77,-0.01 -21.62,0.05 -32.26,-1.34 -3.51,-0.45 -7.98,-4.76 -9.41,-8.34 -7.83,-19.83 -1.84,-33.14 17.19,-38.85 13.25,-3.98 26.93,-6.56 40.07,-10.86 28.06,-9.16 47.47,-26.98 56.98,-55.86 8.34,-25.32 10.85,-51.17 10.96,-77.41 0.48,-104.8 0.98,-209.62 0.93,-314.43 -0.05,-124.84 -0.44,-249.69 -1.18,-374.53 -0.15,-23.07 -1.89,-46.22 -4.4,-69.16 -1.65,-15.21 -4.79,-30.5 -9.4,-45.07 -8.02,-25.31 -25.05,-41.79 -51.89,-47.18 -16.6,-3.34 -33.23,-6.83 -49.57,-11.23 -11.62,-3.13 -15.73,-13.99 -13.16,-30.24 1.73,-11.08 9.08,-15.2 19.28,-15.58 10.79,-0.38 21.58,-0.65 32.36,-0.66 129.48,-0.14 258.96,-0.22 388.43,-0.32 4.63,0 9.25,0.08 13.88,-0.03 28.49,-0.77 30.79,4.01 30.06,32.43 -0.24,9.21 -5.41,14.03 -13.6,15.83 -12.01,2.63 -24.09,5.14 -36.27,6.87 -34.09,4.9 -55.76,24.29 -66.18,56.52 -8.11,25.09 -11.43,50.92 -11.34,77.39 0.31,94.02 0.14,188.06 0.08,282.07 -0.11,141.81 -0.21,283.62 -0.49,425.44 -0.06,24.73 0.66,49.32 6.3,73.52 9.13,39.3 30.84,66.53 72.18,74.74 13.59,2.7 27.3,4.89 40.82,7.92 13.36,2.99 16.81,9.84 15.44,28.49 -1.02,13.84 -5.46,18.75 -20.4,18.78 -66.27,0.11 -132.55,-0.27 -198.83,-0.47 -9.24,-0.02 -18.49,0 -27.74,0 0,0.54 0,1.07 0,1.6zm3971.26 -0.31c-104.79,0 -209.59,0.04 -314.38,-0.02 -24.65,-0.02 -49.32,-0.07 -73.97,-0.71 -19.61,-0.5 -31.23,-20.18 -22.52,-38.09 1.8,-3.71 5.83,-7.68 9.63,-8.8 11.78,-3.51 23.96,-5.7 35.98,-8.4 34.27,-7.68 56.96,-27.02 68.58,-61.32 9.11,-26.91 11.79,-54.1 11.93,-81.83 0.34,-66.27 -0.03,-132.54 -0.02,-198.81 0.03,-137.16 0.37,-274.32 0.03,-411.49 -0.1,-40.04 -1.18,-80.13 -3.54,-120.09 -1.16,-19.84 -5.02,-39.75 -9.8,-59.1 -7.7,-31.08 -27.03,-51.05 -59.74,-56.75 -13.63,-2.39 -27.15,-5.72 -40.47,-9.51 -9.97,-2.86 -13.34,-14.01 -10.67,-31.57 1.36,-9.04 7.2,-13.06 15.84,-13.36 10.78,-0.39 21.56,-0.68 32.35,-0.67 129.44,0.04 258.91,0.15 388.36,0.27 7.7,0.01 15.42,-0.01 23.11,0.33 9.25,0.43 13.31,6.18 13.94,14.81 0.34,4.61 0.17,9.24 0.4,13.86 0.54,10.64 -3.37,17.59 -14.79,19.14 -12.21,1.65 -24.47,3.18 -36.54,5.64 -42.57,8.66 -61.47,27.18 -68.59,70 -3.52,21.21 -5.25,42.94 -5.28,64.44 -0.19,225.01 0.07,450.01 0.4,675.01 0.02,20.02 0.5,40.12 2.42,60.03 4.13,42.68 20.06,60.44 61.06,69.5 10.48,2.33 21.22,4.19 31.92,4.77 56.97,3.1 113.92,3.04 170.96,0.65 70.49,-2.97 122.93,-35.39 160.45,-93.85 12.48,-19.44 23.76,-39.49 32.4,-61.1 5.17,-12.94 35.98,-22.29 48.25,-15.26 3.18,1.81 5.58,7.79 5.56,11.85 -0.06,13.83 -0.4,27.79 -2.36,41.46 -9.14,63.97 -18.75,127.87 -28.43,191.76 -3.33,21.94 -8.05,26.1 -29.48,27.32 -7.69,0.44 -15.42,0.28 -23.12,0.28 -123.28,0.01 -246.58,0.01 -369.87,0.01 0,-0.14 0,-0.26 0,-0.4zm846.73 -1101.79c149.49,1.6 298.98,3.54 448.45,-1.75 9.22,-0.32 18.57,-0.7 27.64,0.56 3.38,0.45 7.32,5.03 8.81,8.64 1.66,4.04 0.96,9.09 1.08,13.71 1.82,69.32 3.65,138.64 5.39,207.97 0.19,7.69 0.28,15.44 -0.34,23.11 -1.14,14.05 -26.26,27.34 -38.9,19.98 -4.87,-2.83 -9.24,-8.52 -11.25,-13.87 -7.03,-18.72 -13.04,-37.82 -19.23,-56.84 -11.91,-36.69 -37.59,-59.51 -73.58,-70.33 -19.03,-5.73 -39,-10.8 -58.69,-11.4 -52.34,-1.64 -104.74,-0.98 -157.13,-0.57 -15.21,0.12 -18.13,3.8 -19.07,19.54 -0.74,12.3 -0.77,24.65 -0.78,36.97 -0.05,238.9 -0.15,477.79 0.07,716.68 0.03,24.62 1.4,49.3 3.46,73.84 2.65,31.59 20.87,53.76 46.1,71.12 9.29,6.39 19.75,7.88 30.6,9.06 16.83,1.82 33.56,4.56 50.36,6.68 11.29,1.43 15.64,8.47 15.74,18.89 0.04,4.58 -0.58,9.2 -1.3,13.75 -1.61,10.32 -6.81,16.37 -18.23,16.23 -23.11,-0.28 -46.23,-0.03 -69.36,-0.03 -117.12,0.04 -234.25,0.08 -351.37,0.12 -10.79,0 -21.58,-0.19 -32.37,-0.03 -22.79,0.35 -26.59,-1.22 -26.52,-31.14 0.03,-8.17 3.41,-14.57 12.49,-16.69 20.96,-4.9 41.82,-10.16 62.76,-15.14 19.82,-4.71 31.73,-17.61 38.62,-36.2 5.93,-15.99 10.41,-32.21 11.02,-49.36 1.44,-40.03 4.15,-80.04 4.23,-120.07 0.39,-217.31 0.58,-434.63 -0.14,-651.93 -0.23,-73.32 0.28,-59.58 -59,-61.98 -40.02,-1.63 -80.14,-0.98 -120.2,-0.99 -12.3,0 -24.75,0.22 -36.89,2 -52.96,7.76 -92.36,32.62 -107.79,87.14 -4.18,14.8 -8.65,29.55 -13.72,44.07 -6.16,17.71 -28.4,25.35 -44.93,15.31 -3.36,-2.04 -6.19,-6.96 -6.88,-10.96 -1.28,-7.51 -1.25,-15.34 -1.03,-23 1.92,-66.24 3.73,-132.47 6.15,-198.69 1.25,-34 1.79,-34.26 38.01,-34.69 27.73,-0.33 55.48,0.28 83.22,0.28 124.84,0.05 249.67,0.02 374.51,0.02zm-1763.82 1102.1c-118.69,0 -237.39,0 -356.08,0 -10.79,0 -21.58,0.23 -32.37,-0.09 -19.74,-0.58 -30.98,-18.37 -24.09,-38.34 2.12,-6.13 7.2,-9.17 13.66,-10.82 17.88,-4.55 35.56,-9.83 53.39,-14.55 28.47,-7.53 43.99,-27.24 50.36,-54.66 3.47,-14.94 5.92,-30.29 7.02,-45.58 1.57,-21.5 1.97,-43.12 1.98,-64.69 0.05,-212.72 0.08,-425.45 -0.3,-638.17 -0.07,-38.47 -0.48,-76.85 -7.1,-115.18 -6.09,-35.23 -25.68,-54.65 -58.98,-62.44 -10.48,-2.46 -21.24,-3.74 -31.8,-5.93 -23.54,-4.88 -28.02,-11.02 -26.02,-34.33 0.76,-8.84 5.3,-14.43 14.06,-14.98 12.29,-0.78 24.65,-0.73 36.97,-0.74 197.31,-0.29 394.62,-0.41 591.93,-0.86 41.6,-0.08 83.22,-1.27 124.82,-1.97 9.03,-0.15 14.7,4.16 15.4,13.12 1.06,13.82 1.89,27.69 1.88,41.54 -0.03,60.12 -1.1,120.23 -0.35,180.34 0.39,31.28 -9.02,34.76 -35.05,34.25 -8.43,-0.17 -14.5,-4.03 -16.64,-12.82 -3.66,-14.95 -7.05,-30 -11.28,-44.8 -14.26,-49.98 -44.99,-83.37 -97.24,-93.88 -16.55,-3.33 -33.42,-7.01 -50.17,-7.13 -69.37,-0.55 -138.72,-0.07 -208.07,0.66 -19.02,0.18 -20.91,2.47 -20.92,22.18 -0.05,110.98 0.08,221.98 0.58,332.95 0.1,21.7 3.3,25.14 23.42,25.32 61.66,0.53 123.31,0.61 184.97,0.29 42.39,-0.22 73.59,-19.17 92.14,-57.83 4,-8.33 7.75,-16.8 12.1,-24.94 8.18,-15.33 16.08,-18.73 33.94,-15.31 8.66,1.66 13.43,6.69 13.24,15.71 -0.59,26.19 -0.64,52.41 -2.08,78.56 -3.3,60.06 -5.08,120.04 -0.33,180.15 1.85,23.28 -5.77,29.04 -30.33,28.08 -8.75,-0.34 -14.87,-3.9 -18.07,-11.56 -5.34,-12.77 -9.59,-25.98 -14.97,-38.72 -14.4,-34.09 -40.5,-53.62 -76.75,-59.15 -12.12,-1.86 -24.58,-2.01 -36.88,-1.99 -52.42,0.11 -104.83,0.29 -157.22,1.06 -21.38,0.31 -23.21,2.34 -23.39,24.63 -0.4,49.32 -0.16,98.64 -0.19,147.98 -0.05,44.7 -0.13,89.41 -0.17,134.1 0,10.79 -0.64,21.64 0.24,32.36 4.83,58.21 18.95,67.94 66.96,78.08 7.54,1.6 15.03,4.3 22.63,4.57 72.38,2.48 144.73,5.62 216.79,-6.1 57.31,-9.32 100.2,-37.33 124.72,-91.24 8.27,-18.2 17.39,-36.05 26.48,-53.88 9.83,-19.27 14.95,-21.81 36.32,-20.13 8.78,0.7 14.89,4.61 15.23,13.71 0.4,10.73 0.45,21.62 -0.81,32.27 -7.23,61.16 -14.77,122.28 -22.48,183.38 -1.16,9.14 -3.77,18.09 -5.65,27.15 -1.5,7.18 -6.86,10.14 -13.23,10.49 -13.82,0.75 -27.7,0.97 -41.54,0.98 -120.23,0.06 -240.47,0.04 -360.69,0.04 0,-0.38 0,-0.77 0,-1.16zm2737.84 -0.95c-124.92,0 -249.86,0 -374.8,0 -6.16,0 -12.34,0.15 -18.5,-0.13 -18.18,-0.82 -21.63,-4.12 -22.69,-21.26 -0.1,-1.55 -0.11,-3.08 -0.13,-4.63 -0.22,-17.16 1.34,-19.12 20.99,-23.18 19.58,-4.03 39.31,-6.84 57.2,-17.2 21.23,-12.29 36.6,-28.19 39.2,-53.62 2.02,-19.91 4.79,-39.84 5.12,-59.79 0.9,-52.44 0.84,-104.89 0.81,-157.32 -0.13,-188.18 -0.3,-376.34 -0.73,-564.52 -0.07,-27.67 -0.51,-55.17 -7.05,-82.67 -8.25,-34.68 -29.8,-52.68 -63.04,-59.17 -12.08,-2.37 -24.47,-3.12 -36.61,-5.19 -6.12,-1.05 -12.07,-3.69 -13.64,-10.65 -2.71,-12.02 -4.83,-24.27 2.2,-35.55 1.34,-2.14 5.31,-3.53 8.14,-3.68 12.31,-0.62 24.65,-0.82 36.99,-0.85 231.35,-0.62 462.7,-1.2 694.05,-1.78 40.48,-0.09 41.09,-0.06 41.39,40.27 0.49,64.77 -0.29,129.55 0.18,194.34 0.24,32.13 -9.17,34.22 -35.45,34.08 -8.44,-0.04 -14.57,-4.38 -16.98,-12.81 -3.38,-11.86 -6.13,-23.91 -9.9,-35.63 -4.71,-14.63 -9.27,-29.42 -15.54,-43.39 -11.89,-26.49 -30.37,-45.67 -60.09,-52.91 -20.91,-5.08 -40.99,-13.02 -62.97,-13.86 -70.91,-2.7 -141.82,-4.86 -212.78,-1.99 -21.48,0.87 -24.05,3.1 -24.05,24.23 -0.03,107.95 0.36,215.92 0.62,323.88 0.01,3.09 0.08,6.17 0.29,9.25 1.47,23.24 2.53,24.31 28.12,25.03 13.88,0.4 27.76,0.43 41.66,0.39 43.18,-0.11 86.36,-0.45 129.54,-0.47 48.1,-0.02 82.36,-21.55 102.6,-65.23 2.59,-5.6 5.53,-11.04 7.93,-16.71 5.25,-12.42 15.85,-13.33 26.98,-12.55 6.54,0.46 11.92,3.81 13,10.71 0.95,6.04 0.79,12.3 0.73,18.46 -0.7,81.74 -1.43,163.47 -2.3,245.22 -0.08,7.66 -0.78,15.38 -2.05,22.93 -0.41,2.51 -3.04,5.5 -5.43,6.68 -14.32,7.02 -35.34,-1.87 -40.91,-17.05 -2.65,-7.23 -4.73,-14.67 -7.53,-21.83 -16.64,-42.5 -47.04,-67.1 -92.87,-72.92 -39.96,-5.09 -80.01,-4.96 -120.09,-4.62 -21.6,0.18 -43.18,0.55 -64.78,0.96 -11.37,0.22 -16.38,6.71 -16.61,17.57 -0.06,3.09 -0.08,6.17 -0.07,9.26 0.27,94.07 0.32,188.16 1.02,282.23 0.14,18.42 1.14,37.15 4.7,55.15 5.19,26.18 20.83,44.32 48.32,49.71 16.64,3.25 33.32,8.33 50.05,8.66 69.3,1.29 138.63,4.43 207.66,-7.06 52.42,-8.72 91.46,-35.22 117.12,-81.16 12.01,-21.5 21.75,-44.25 33.14,-66.11 8.28,-15.91 31.47,-23.05 47.33,-14.57 3.37,1.81 6.56,7.3 6.69,11.18 0.35,10.72 -0.42,21.55 -1.7,32.23 -6.97,58.13 -17.37,115.82 -20.23,174.44 -0.52,10.66 -4.15,21.15 -6.07,31.77 -1.6,8.88 -6.99,13.44 -15.66,13.79 -12.31,0.5 -24.65,0.64 -36.98,0.65 -121.85,0.04 -243.7,0.02 -365.55,0.02 0,-0.35 0,-0.71 0,-1.06zm-5375.91 -204.83c0,-40.08 -0.46,-80.16 0.21,-120.21 0.31,-19.09 6.4,-24.44 24.98,-25.8 6.13,-0.44 12.33,-0.17 18.49,-0.14 10.24,0.06 17.56,4.07 20.71,14.52 6.24,20.64 12.63,41.21 19.15,61.76 9.8,30.92 23.36,60.16 38.87,88.67 35.14,64.61 88.5,105.75 159.25,123.9 63.73,16.34 127.87,17.68 191.94,0.89 133.44,-34.98 177.47,-163.81 142.61,-267.49 -8.44,-25.11 -20.8,-47.84 -37.93,-68.18 -27.99,-33.25 -59.89,-61.9 -96.07,-86.04 -59.03,-39.39 -120.96,-73.75 -183.46,-107.13 -47.71,-25.47 -92.79,-54.85 -135.54,-87.88 -35.65,-27.55 -66.16,-60.15 -92.01,-96.85 -28.09,-39.9 -43.17,-85.17 -48.21,-133.26 -10.12,-96.67 3.25,-189.09 67.59,-265.71 52.35,-62.32 119.46,-105.97 197.71,-131.16 100.36,-32.32 203.33,-32.27 306.66,-23.35 56.8,4.92 112.77,15.77 167.9,30.98 17.36,4.78 26.17,13.38 26.49,31.88 1.44,81.66 4.23,163.27 0.7,244.98 -1.2,27.63 -20.28,34.24 -45.11,30.62 -6.66,-0.96 -10.64,-5.93 -12.59,-12.09 -6.51,-20.55 -12.4,-41.3 -19.24,-61.73 -34.03,-101.75 -106.82,-155.18 -211.57,-166.19 -39.85,-4.2 -80.04,-2.14 -119.38,7.98 -28.66,7.37 -55.32,18.7 -79.23,36.35 -83.86,61.93 -83.21,183.01 -34.02,243.82 33.56,41.49 73.78,74.27 119.64,100.35 33.45,19.02 67.83,36.44 101.91,54.32 62.82,32.96 124,68.54 181.73,109.94 37.93,27.2 70.91,59.59 98.96,96.46 66.04,86.79 88.74,184.57 70.44,292.03 -25.46,149.44 -114.73,244.46 -253.29,297.62 -82.19,31.54 -168.11,37.72 -254.69,34.59 -97.37,-3.52 -192.31,-24.75 -287.03,-46.08 -7.48,-1.68 -14.66,-4.7 -22.06,-6.84 -10.19,-2.96 -15.1,-10.14 -15.91,-20.2 -2.36,-29.18 -5.34,-58.33 -6.45,-87.55 -1.1,-29.22 -0.23,-58.53 -0.23,-87.8 -0.65,0 -1.29,0 -1.93,0zm-3607.71 -489.65c0,146.52 0.25,293.05 -0.18,439.57 -0.11,32.56 3.29,64.73 8.01,96.71 8.47,57.22 37.32,87.55 93.76,99.88 18.07,3.94 36.36,7.77 54.73,9.11 25.76,1.87 24.65,12.48 23.68,30.02 -0.84,15.11 -4.9,18.86 -19.43,19.67 -1.54,0.08 -3.08,0.1 -4.62,0.05 -168.09,-4.76 -336.2,-0.93 -504.3,-0.21 -3.09,0.02 -6.19,0.08 -9.26,-0.11 -14.45,-0.91 -18.26,-4.58 -20.45,-19.5 -3.14,-21.26 0.99,-27.25 22.67,-31.39 13.63,-2.6 27.61,-3.54 41.06,-6.79 39.78,-9.63 63.12,-35.65 72.84,-74.96 5.94,-24.09 8.72,-48.37 8.71,-73.21 -0.18,-296.14 -0.14,-592.29 -0.04,-888.41 0.01,-26.34 -2.01,-52.46 -8.19,-78.03 -2.87,-11.88 -7.26,-23.48 -11.89,-34.83 -8.8,-21.52 -25.3,-34.69 -47.67,-39.95 -20.99,-4.93 -42.27,-8.6 -63.32,-13.31 -14.62,-3.28 -18.16,-10.82 -16.55,-32.72 1.01,-13.62 4.95,-17.44 21.18,-18.68 10.75,-0.82 21.58,-0.82 32.37,-0.85 172.74,-0.64 345.48,-0.86 518.23,-2.02 60.47,-0.4 120.24,4.94 178.97,18.75 70.15,16.49 133.67,46.34 185.77,97.81 44.07,43.55 71.15,95.61 85.21,155.84 20.67,88.64 13.84,175.99 -19.96,258.62 -40.95,100.06 -115.48,170.19 -217.75,207.96 -91.9,33.95 -186.42,38.8 -282.34,20.33 -23.01,-4.43 -44.65,-12.28 -62.82,-27.48 -16.03,-13.4 -18.39,-26.24 -9.54,-45.13 4.5,-9.6 11.6,-13.84 22.27,-11.22 20.94,5.14 41.72,11.23 62.9,15.12 42.07,7.71 83.01,2.63 121.84,-15.53 34.55,-16.16 61.41,-40.89 79.11,-74.96 23.7,-45.6 37.84,-93.94 43.96,-145.08 8.37,-69.89 5.55,-138.41 -18.74,-205.13 -7.93,-21.78 -17.43,-42.63 -32.01,-61.12 -25.65,-32.52 -58.24,-54.91 -97.24,-67.68 -36.75,-12.04 -74.36,-20.5 -113.4,-19.49 -29.28,0.75 -58.61,1.33 -87.8,3.43 -22.61,1.63 -24.61,4.68 -26.12,29.07 -0.86,13.84 -1.11,27.74 -1.12,41.62 -0.07,148.06 -0.04,296.13 -0.04,444.2 -0.83,0 -1.66,0 -2.48,0z"/>
   <path class="fil2" d="M4072.36 1075.96c-131.97,9.41 -256.5,-117.28 -255.15,-250.41 1.43,-140.87 121.7,-254.13 258.88,-254 136.81,0.12 253.42,115.43 251.93,258.49 -1.61,153.49 -129.16,254 -255.66,245.92z"/>
   <path class="fil3" d="M12914.28 3060.08c-1.16,2.38 -3.33,4.77 -3.29,7.13 1.31,83.18 4.07,166.34 3.69,249.51 -0.15,32.02 8.34,53.72 40.66,63 7.06,2.03 13.49,6.91 19.6,11.32 1.84,1.33 2.48,5.68 2.03,8.37 -0.41,2.45 -2.63,5.88 -4.76,6.55 -7.29,2.27 -14.9,4.99 -22.36,4.92 -47.73,-0.45 -95.45,-1.58 -143.19,-2.53 -1.5,-0.03 -3,-0.52 -4.47,-0.9 -5.11,-1.3 -7.42,-5.24 -7.57,-9.9 -0.09,-2.75 1.04,-6.47 3,-8.14 3.44,-2.92 7.76,-6.09 12,-6.56 28.91,-3.23 38.49,-21.64 39.38,-47.83 0.77,-23.09 2.9,-46.14 3.01,-69.22 0.35,-77.03 0.09,-154.05 0.02,-231.08 0,-9.24 -0.46,-18.49 -0.39,-27.72 0.29,-36.27 -9.56,-66.77 -45.71,-83.13 -3.96,-1.79 -6.9,-6.05 -10.05,-9.41 -3.47,-3.71 0.27,-13.92 5.53,-14.64 33.74,-4.57 67.63,-2.72 101.46,-2 10.05,0.21 16.21,7.91 22.67,14.44 22.74,23.01 45.47,46.02 68.18,69.06 78.92,80.11 157.81,160.23 236.81,240.26 3,3.04 6.98,5.11 10.01,7.28 8.98,-2.46 7.9,-9.23 7.85,-14.96 -0.57,-70.86 -1.27,-141.72 -2.07,-212.57 -0.1,-7.69 -0.99,-15.37 -1.62,-23.05 -2.02,-24.89 -11.72,-44.3 -36.93,-53.44 -5.53,-2.01 -11.06,-5.6 -15.03,-9.91 -3.12,-3.37 -1.91,-9.17 2.34,-11.76 3.73,-2.27 8.52,-3.79 12.89,-3.87 49.26,-0.84 98.54,-1.37 147.81,-1.82 2.89,-0.03 5.93,1.11 8.67,2.26 4.65,1.95 6.96,6.03 6.59,10.78 -0.2,2.82 -1.61,6.89 -3.71,7.95 -6.68,3.37 -13.86,5.79 -20.97,8.23 -16.01,5.5 -24.96,16.67 -28.83,33.05 -5.01,21.22 -5.59,42.76 -5.73,64.3 -0.74,115.53 -1.16,231.07 -1.77,346.6 -0.08,13.86 0.04,27.76 -1.05,41.55 -0.98,12.55 -13.46,19.28 -23.17,12.15 -13.58,-9.99 -26.92,-20.64 -38.8,-32.56 -55.47,-55.64 -110.35,-111.86 -165.53,-167.79 -53,-53.72 -106.08,-107.35 -159.27,-160.87 -1.77,-1.79 -5.1,-2.01 -7.93,-3.05zm1930.23 329.98c-3.36,-3 -7.71,-6.25 -11.93,-6.68 -30.81,-3.2 -43.67,-26.19 -55.79,-49.87 -6.31,-12.32 -12.01,-24.96 -17.41,-37.71 -38.41,-90.64 -76.65,-181.35 -114.97,-272.05 -17.35,-41.05 -34.78,-82.06 -52.14,-123.09 -4.5,-10.64 -11.74,-18.88 -23.71,-18.94 -12.63,-0.07 -17.67,10.66 -22.68,20.22 -2.13,4.07 -3.41,8.58 -5.23,12.82 -15.12,35.31 -30.17,70.65 -45.44,105.88 -45.28,104.44 -91.02,208.69 -135.69,313.39 -10.8,25.31 -22.06,47.62 -53.97,48.92 -4.17,0.17 -8.96,3.16 -12.04,6.26 -2.97,2.98 -6.08,8.15 -5.46,11.72 0.6,3.38 5.65,7.94 9.25,8.48 10.56,1.58 21.39,1.88 32.1,1.85 33.88,-0.11 67.77,-0.19 101.62,-1.17 13.01,-0.38 32.16,5.78 36.74,-9.54 5.97,-20.03 -17.06,-15.76 -27.24,-22.39 -1.28,-0.84 -2.77,-1.34 -4.1,-2.11 -10.74,-6.15 -16.23,-15.98 -12.42,-26.83 10.18,-28.99 21.32,-57.66 32.15,-86.44 3.69,-9.81 11.11,-13.86 21.4,-13.88 41.58,-0.06 83.17,0.09 124.73,-0.66 15.06,-0.27 21.95,7.38 26.72,20.18 7.51,20.18 16.65,39.76 23.62,60.1 4.38,12.77 14.32,25.04 9.66,39.41 -4.34,13.35 -20.34,12.14 -29.6,19.9 -3.88,3.26 -6.21,6.71 -5.79,11.35 0.7,7.92 7.17,9.2 13.25,9.25 30.79,0.23 61.58,0.1 92.38,0.1 0,0.58 0,1.17 0,1.75 27.72,0 55.44,0.35 83.16,-0.2 9.07,-0.18 18.19,-2.34 27.07,-4.46 1.89,-0.45 3.74,-4.62 4.03,-7.24 0.3,-2.74 -0.43,-6.68 -2.28,-8.33zm-355.75 -195.2l0 0c4.55,-25.72 33.96,-99.92 53.46,-135.86 15.67,23.21 39.89,86.63 51.34,135.12 -35.08,3.49 -69.76,4.16 -104.79,0.74zm-2664.01 -40.95c-1.13,-19.95 -0.43,-40.24 -3.92,-59.78 -16.53,-92.64 -72.17,-153.5 -157.48,-189.16 -63.18,-26.4 -128.89,-27 -195.17,-17.24 -88.29,12.99 -150.81,64.5 -199.39,136.05 -85.29,168.19 3.69,358.4 177.57,395.71 27.37,5.87 54.83,7 95.55,8.05 25.84,1.26 63.15,-5.64 100.22,-17.76 117.26,-38.31 188.42,-153.38 182.61,-255.88zm-123.69 -9.84l0 0c-1.13,60.83 -9.19,105.84 -29.03,148.65 -56.09,121 -211.32,104.26 -263.68,25.1 -23.6,-35.69 -38.69,-73.49 -45.15,-114.99 -10.18,-65.5 -4.37,-129.08 26.68,-188.88 14.63,-28.17 36.73,-49.29 63.63,-65.45 47.45,-28.53 130.72,-20.17 174.1,17.49 24.79,21.51 44.28,47.14 54.79,78.77 12.23,36.81 19.86,74.38 18.66,99.31zm4708.84 -245.89c-62.02,-19.27 -125.01,-21.33 -187.36,-7.88 -106.22,22.88 -178.26,86.14 -211.08,191.5 -7.95,25.51 -7.53,51.64 -8.71,77.79 -5.3,117.4 81.01,222.89 189.92,255.43 31.37,9.37 63.44,12.16 95.94,13.29 18.45,-1.15 37.01,-1.32 55.3,-3.72 16.72,-2.18 33.55,-5.5 49.65,-10.5 78.77,-24.51 139.45,-70.59 173.92,-147.63 17.39,-38.85 22.07,-79.72 22.46,-121.7 1.08,-114.77 -70.73,-212.6 -180.04,-246.57zm44.42 349.72l0 0c-9.68,40.69 -29.88,77.81 -65.37,103.37 -65.06,46.86 -156.31,35.09 -208.35,-26.57 -37.46,-44.38 -49.68,-98.01 -55.63,-153.81 -0.81,-7.61 -0.12,-15.38 -0.12,-23.08 0.6,-41.91 6.78,-82.78 23.96,-121.37 4.36,-9.79 9.33,-19.45 15.15,-28.41 64.29,-98.96 197.22,-75.76 247.84,-14.2 15.86,19.3 28.04,40.3 36.37,63.74 23.51,66.14 22,133.63 6.15,200.33zm-2305.98 -149.36c-9.8,-62.86 -41.66,-111.31 -93.43,-147.87 -49.57,-35.02 -105.21,-50.68 -164.81,-52.67 -46.2,-1.55 -92.47,-0.31 -138.72,-0.31 0,-0.33 0,-0.66 0,-0.99 -27.76,0 -55.51,-0.3 -83.26,0.09 -24.65,0.35 -49.29,1.45 -73.94,2.21 -6.51,0.19 -12.93,2.01 -13.57,9.15 -0.58,6.45 4.2,11.23 10.1,14.01 4.16,1.97 8.46,3.73 12.81,5.23 22.26,7.64 29.98,24.82 30.73,46.59 0.21,6.16 0.28,12.33 0.28,18.5 0.04,103.29 0.13,206.59 -0.02,309.88 -0.02,15.4 -0.98,30.82 -1.88,46.2 -0.81,13.48 -7.67,23.15 -20,28.73 -8.42,3.81 -17.25,6.82 -25.31,11.24 -3.46,1.88 -7.61,6.43 -7.65,9.81 -0.08,7.47 6.41,9.1 12.83,9.43 7.7,0.39 15.39,1.12 23.09,1.13 61.65,0.11 123.18,1.16 184.79,5.37 65.01,4.45 129.28,-3.36 191.35,-24.71 41.71,-14.36 76.98,-37.55 104.37,-72.96 50.35,-65.07 64.69,-138.18 52.24,-218.06zm-136.89 149.2l0 0c-24.97,68.95 -75.73,106.13 -145.42,120.19 -27.35,5.5 -55.16,4.16 -82.64,-0.24 -16.74,-2.68 -28.16,-12.13 -30.34,-29.87 -1.86,-15.22 -4.08,-30.51 -4.24,-45.8 -0.51,-52.27 -0.18,-104.54 -0.18,-156.82 0.89,0 1.79,0 2.69,0 0,-55.35 -0.35,-110.69 0.17,-166.03 0.23,-24.77 2.73,-26.66 25.67,-27.85 38.52,-2.01 76.7,-0.7 114.54,8.19 36.01,8.47 64.79,26.93 86.96,56.45 25.54,34.04 40.49,72.05 44.47,114.36 4.07,43.19 3.39,85.75 -11.68,127.41zm1686.17 161.1c-29.28,0 -58.56,0.23 -87.83,-0.15 -7.59,-0.1 -15.25,-1.71 -22.65,-3.56 -1.94,-0.5 -3.98,-4.46 -4.18,-6.96 -0.2,-2.67 0.95,-7 2.87,-8 6.76,-3.49 13.87,-6.76 21.24,-8.49 21.6,-5.08 30,-19.48 30.56,-40.31 0.38,-13.87 1.67,-27.73 1.69,-41.58 0.2,-100.22 0.21,-200.43 0.15,-300.64 -0.02,-10.78 -0.81,-21.56 -1.55,-32.32 -1.39,-20.2 -10.32,-35.02 -30.07,-42.45 -5.66,-2.12 -11.04,-5.37 -15.9,-8.99 -2.03,-1.51 -3.54,-5.42 -3.23,-7.98 0.32,-2.54 2.87,-6.34 5.07,-6.85 7.46,-1.72 15.19,-3.01 22.83,-3.07 58.59,-0.47 117.16,-0.62 175.75,-0.86 1.54,-0.01 3.09,0.12 4.62,0.13 8.37,0.02 15.97,2.75 17.67,11.41 1.65,8.52 -3.84,14.57 -11.86,17.11 -12.9,4.11 -28.32,2.25 -37.23,15.5 -9.06,13.48 -9.44,29.02 -9.45,44.52 -0.15,107.92 -0.29,215.85 -0.36,323.77 0,7.7 0.19,15.44 0.89,23.11 2.29,25.12 10.44,45.23 40.42,46.66 4.44,0.21 9.31,1.78 12.99,4.2 5.22,3.44 8.16,8.7 7.24,15.64 -0.73,5.58 -4.73,8.19 -9.02,8.75 -12.17,1.62 -24.44,2.93 -36.7,3.16 -24.65,0.47 -49.31,0.13 -73.97,0.13 0,-0.62 0,-1.25 0,-1.88zm-4858.8 -512.2c53.91,0 107.81,-0.14 161.72,0.11 12.17,0.06 16.74,4.71 16.93,16.48 0.44,29.18 0.88,58.41 -4.51,87.28 -1.12,5.98 -3.65,12.01 -10.64,13.02 -7.16,1.05 -11.19,-4.27 -14.24,-9.66 -6.05,-10.72 -11.89,-21.57 -17.4,-32.57 -8.31,-16.59 -21.3,-26.26 -39.99,-26.57 -32.32,-0.54 -64.65,-0.63 -96.95,-0.52 -9.7,0.04 -12.79,7.33 -13.23,15.55 -0.85,16.91 -1.51,33.85 -1.73,50.79 -0.26,21.57 -0.34,43.14 0.1,64.7 0.99,48.93 -5.64,49.22 51.91,48.94 9.23,-0.06 18.47,-1.07 27.69,-0.92 23.36,0.4 43.01,-4.21 47.27,-31.97 0.21,-1.34 1.7,-2.49 2.61,-3.71 3.98,-5.37 9.31,-7.84 15.92,-6.68 7,1.24 11.05,6.69 11.21,12.75 0.99,35.39 1.53,70.79 1.55,106.18 0,8.12 -5.15,14.79 -13.53,16.29 -7.95,1.42 -15.36,-1.55 -19.63,-8.85 -3.08,-5.26 -5.08,-11.17 -7.4,-16.87 -3.91,-9.61 -11.08,-14.25 -21.34,-14.48 -3.07,-0.07 -6.14,-0.57 -9.21,-0.6 -27.63,-0.3 -55.32,-3.28 -82.86,1.35 -13.16,26.41 -3.91,54.31 -4.91,81.46 -0.96,26.08 1.52,52.3 2.67,78.46 0.99,22.77 11.8,37.39 34.88,42.3 7.35,1.57 14.79,4.03 21.25,7.71 3.29,1.87 5.66,7.21 6.3,11.31 0.75,4.9 -3.22,8.35 -8.1,8.87 -10.7,1.13 -21.44,2.24 -32.18,2.39 -50.8,0.73 -101.57,1.3 -152.38,1.54 -10.7,0.06 -21.47,-1.11 -32.11,-2.55 -4.18,-0.56 -8.86,-2.34 -9.25,-8.29 -0.31,-4.91 0.96,-8.96 5.18,-11.64 2.57,-1.63 5.28,-3.93 8.08,-4.18 33.33,-2.99 43.09,-24.83 44.05,-54.09 0.26,-7.69 1.67,-15.36 1.68,-23.04 0.05,-106.27 -0.03,-212.55 -0.18,-318.81 -0.01,-6.14 -0.82,-12.28 -1.48,-18.41 -2.31,-21.44 -11.03,-38.24 -32.98,-45.55 -4.33,-1.44 -9.1,-2.71 -12.45,-5.51 -3.29,-2.74 -6.9,-7.31 -6.91,-11.09 -0.02,-3.74 3.5,-8.25 9.11,-8.53 13.83,-0.67 27.64,-2.07 41.47,-2.15 44.67,-0.28 89.34,-0.11 134.01,-0.11 0,-0.03 0,-0.08 0,-0.12zm4340.63 2.18c72.44,-1.38 144.87,-2.77 217.32,-4.15 13,-0.24 17.48,2.73 17.49,14.95 0.05,35.44 -0.62,70.88 -1.46,106.3 -0.11,4.1 -1.95,8.82 -7.74,9.95 -6.57,1.28 -13.37,0.26 -16.67,-4.75 -4.97,-7.56 -8.88,-16.26 -11.26,-25 -6.39,-23.57 -22.64,-36.81 -45.06,-41.32 -27.13,-5.46 -54.63,-9.78 -82.62,-8.34 -10.86,0.56 -17.28,5.29 -18.07,16.37 -0.44,6.14 -0.41,12.32 -0.4,18.48 0.22,103.31 0.36,206.61 0.84,309.91 0.07,16.94 1.82,33.86 2.51,50.8 0.84,21.11 9.32,35.03 32.23,37.73 7.3,0.87 14.75,4.1 21.08,7.96 2.89,1.76 4.02,7.61 4.49,11.76 0.63,5.6 -4.34,8.3 -8.63,8.63 -16.88,1.26 -33.83,2.25 -50.76,2.38 -47.77,0.34 -95.53,0.3 -143.3,0.19 -9.16,-0.01 -18.49,-0.21 -27.4,-2.02 -3.27,-0.66 -7.37,-6.09 -7.71,-9.67 -0.36,-3.66 2.65,-8.54 5.6,-11.43 7,-6.83 16.9,-6.52 25.77,-8.86 27.86,-7.35 28.77,-8.35 30.6,-37.36 1.06,-16.92 1.52,-33.9 1.52,-50.85 0.1,-103.31 0.01,-206.62 -0.11,-309.92 0,-7.68 0.21,-15.54 -1.41,-22.96 -0.76,-3.48 -5.68,-8.77 -8.58,-8.69 -43.97,1.2 -89.71,-7.43 -127.41,26.73 -12.02,10.9 -18.93,23.78 -26.27,37.19 -3.12,5.67 -8.31,9.35 -15.07,8.05 -6.91,-1.32 -10.09,-6.46 -9.85,-13.34 1.01,-29.26 1.44,-58.57 3.49,-87.75 1.59,-22.43 5.03,-24.63 29.46,-25 10.78,-0.16 21.58,0.6 32.36,0.62 61.67,0.07 123.33,0.03 185,0.03 0,1.12 0.01,2.25 0.02,3.37zm-3093.12 207.28c0,-35.43 0.05,-70.86 -0.04,-106.3 -0.02,-9.23 -0.3,-18.48 -0.76,-27.71 -1.09,-21.79 -9.65,-38.7 -31.46,-46.42 -7.33,-2.58 -14.43,-5.26 -18.53,-12.46 -2.79,-4.91 -0.38,-10.39 2.98,-11.97 5.34,-2.5 11.95,-3.09 18.02,-3.12 61.62,-0.31 123.23,-0.41 184.85,-0.3 4.35,0.01 10,0.94 12.66,3.72 2.43,2.53 3.43,9.09 1.84,12.24 -3.7,7.36 -12.04,8.74 -19.41,10.69 -26.71,7.05 -35.71,25.1 -35.59,51.67 0.33,77.03 -0.82,154.05 -1,231.09 -0.05,23.15 3.55,45.85 9.16,68.47 14.04,56.5 68.62,90.13 119.4,92.78 60.25,3.15 108.88,-29.52 128.29,-85.74 7.56,-21.9 11.73,-44.59 12.69,-67.89 3.21,-78.57 1.36,-157.11 0.51,-235.69 -0.3,-26.57 -11.4,-43.79 -36.59,-52.11 -4.23,-1.4 -9.07,-2.81 -11.94,-5.82 -2.89,-3.05 -5.04,-8.1 -5.03,-12.26 0.03,-4.15 2.68,-8.69 8.25,-9.32 1.53,-0.18 3.02,-0.81 4.52,-0.81 49.27,-0.33 98.54,-0.73 147.81,-0.76 6.72,-0.01 11.56,4.35 12.14,11.26 0.54,6.25 -0.98,13.54 -8.1,14.42 -38.81,4.8 -44.66,32.84 -45.35,63.92 -1.62,73.93 -2.5,147.86 -3.93,221.79 -0.57,29.42 -5.5,58.07 -15.2,86.02 -23.13,66.64 -69.08,108.46 -137.42,123.87 -61.48,13.87 -122.6,9.89 -181.62,-13.12 -61.23,-23.86 -96.71,-69.25 -106.47,-134.04 -3.21,-21.26 -4.54,-42.92 -5.06,-64.42 -0.81,-33.89 -0.21,-67.8 -0.21,-101.68 0.19,0 0.38,0 0.58,0zm4820.44 -45.99c-8.94,7.48 -6.2,15.58 -6.1,22.69 0.95,70.89 2.14,141.77 3.41,212.66 0.17,9.25 1.51,18.46 1.68,27.69 0.53,28.89 9.17,51.19 42.03,56.15 5.67,0.86 11.15,4.93 16.02,8.48 3.75,2.74 5.36,7.49 3.23,12.13 -1.13,2.45 -3.23,4.94 -5.54,6.26 -2.56,1.47 -5.85,2.25 -8.82,2.25 -52.39,0.06 -104.75,0.03 -157.12,-0.31 -4.15,-0.02 -8.88,-1.1 -10.5,-6.76 -2.19,-7.6 2.21,-11.33 7.68,-14.53 2.65,-1.56 5.5,-3.46 8.4,-3.73 28.85,-2.64 39.03,-20.47 39.78,-47.07 0.4,-13.83 3.46,-27.62 3.48,-41.43 0.19,-98.63 1.4,-197.25 -2.09,-295.89 -1.2,-34.38 -11.67,-59.36 -43.68,-73.8 -4.02,-1.81 -7.16,-5.69 -10.55,-8.79 -4.14,-3.79 -2.01,-13.92 3.4,-14.74 12.11,-1.81 24.29,-3.32 36.49,-4.13 10.76,-0.71 21.75,0.91 32.33,-0.59 30.45,-4.31 51.37,8.5 72.19,30.38 93.45,98.26 188.6,194.92 283.22,292.07 3.99,4.11 7.68,9.54 14.83,8.43 8.16,-3.26 5.11,-10.53 5.09,-15.88 -0.32,-70.91 -2.29,-141.82 -1.09,-212.69 0.61,-36.12 -8.26,-63.52 -44.29,-77.34 -3.8,-1.45 -6.59,-6 -9.35,-9.49 -2.27,-2.85 -1.35,-6.09 2.26,-7.54 5.57,-2.23 11.36,-5.3 17.1,-5.42 46.21,-0.87 92.42,-1.24 138.64,-1.44 4.45,-0.01 9.2,1.53 13.22,3.53 2.33,1.16 5.12,4.89 4.85,7.1 -0.55,4.21 -2.52,8.61 -5.08,12.05 -1.54,2.07 -5.23,3.14 -8.1,3.53 -35.35,4.69 -43.01,28.92 -44.37,59.64 -5.05,113.99 -6.75,228 -5.04,342.08 0.44,29.23 -0.92,58.52 -2.23,87.74 -0.44,10.14 -12.11,15.85 -20.23,9.69 -13.4,-10.19 -26.53,-21 -38.29,-32.99 -71.27,-72.58 -141.85,-145.83 -213.23,-218.29 -36.76,-37.33 -74.7,-73.5 -113.63,-111.7z"/>
   <path class="fil4" d="M10281.04 740.61c-41.82,14.41 -85.06,6.65 -127.36,7.68 -20.65,0.5 -42.87,4.39 -62.92,-9.95 3.89,-4.39 6.29,-9.74 9.86,-10.69 30.92,-8.24 40.89,-28.34 37.15,-58.91 -2.04,-16.71 0.44,-33.94 -0.62,-50.83 -1.22,-19.51 8.75,-44.03 -6.16,-57.23 -14.15,-12.51 -38.29,-5.56 -57.99,-6.03 -35.44,-0.85 -70.93,-0.39 -106.37,0.25 -15.78,0.29 -19.5,3.91 -19.86,18.94 -0.77,30.81 -0.9,61.66 -0.78,92.49 0.14,29.89 7.5,55.32 41.75,62.95 2.3,0.51 4.9,4.07 5.54,6.66 1.38,5.7 -3.98,6.8 -7.63,8.79 -1.34,0.73 -2.84,1.49 -4.3,1.59 -55.33,3.62 -110.64,5.34 -165.8,-2.06 -2.44,-0.33 -4.46,-3.86 -8.38,-7.47 3.68,-2.84 6.88,-6.99 10.94,-8.16 26.67,-7.73 34.76,-26.22 34.59,-52.41 -0.57,-90.97 -0.05,-181.93 0,-272.9 0.01,-4.61 -0.72,-9.23 -0.81,-13.85 -0.3,-17.14 -7.67,-29.76 -24.05,-35.7 -7.26,-2.63 -14.65,-4.22 -19.81,-10.71 -2.91,-3.67 -0.44,-14.55 4.13,-15.59 4.48,-1.02 9.05,-2.19 13.59,-2.25 46.24,-0.81 92.48,-1.41 138.74,-2.02 3.06,-0.04 6.15,0.29 9.21,0.56 8.63,0.78 14.52,4.66 14.58,14.09 0.02,6.3 -1.01,12.26 -9,13.52 -20.39,3.23 -27.65,17.47 -29.62,35.86 -0.99,9.2 -2.54,18.48 -2.06,27.63 1.5,29.01 -4.71,58.35 3.63,87.06 27.79,12.93 57.15,4.02 85.72,5.68 27.64,1.62 55.48,0 83.23,-0.36 10.99,-0.14 17.19,-5.94 17.17,-17 -0.06,-30.84 -1.21,-61.69 -0.46,-92.5 0.53,-21.52 -8.35,-35.16 -28.24,-42.32 -10.19,-3.67 -21.9,-6.89 -17.31,-21.65 3.58,-11.5 14.49,-9.57 23.29,-9.63 49.34,-0.28 98.67,-0.2 148.01,-0.2 3.07,0 6.84,-0.59 9.02,0.91 3.54,2.47 7.69,6.1 8.49,9.88 0.8,3.79 -0.91,10.32 -3.79,12.24 -7.54,5.05 -16.25,8.35 -24.59,12.14 -12.46,5.66 -18.48,15.95 -20.03,28.86 -1.1,9.15 -1.15,18.46 -1.16,27.69 -0.11,80.19 -0.1,160.37 -0.13,240.54 0,4.63 0.14,9.26 0.14,13.88 0.02,26.94 7.05,48.88 37.8,54.76 6.61,1.25 10.01,6.56 12.66,15.77zm-878.65 -1.25c1.94,-9.77 7.26,-15.02 15.25,-17.12 22.61,-5.96 31.14,-19.59 30.77,-43.61 -1.12,-72.4 0.12,-144.82 0.15,-217.25 0.01,-23.11 -0.48,-46.24 -1.51,-69.32 -1.07,-23.74 -2.7,-24.83 -28.23,-24.61 -7.7,0.06 -15.4,0.6 -23.09,0.86 -34.05,1.18 -59.86,13.52 -68.17,49.93 -0.67,2.92 -2.39,5.71 -4.09,8.25 -2.53,3.81 -5.18,7.58 -10.85,6.64 -6.92,-1.16 -10.6,-5.57 -12.28,-11.86 -0.78,-2.92 -1.13,-6.11 -0.92,-9.12 1.79,-26.12 3.43,-52.27 5.78,-78.35 1.27,-13.94 6.19,-17.81 21.99,-15.93 78.36,9.33 157.01,4.97 235.55,5.52 35.41,0.26 70.93,1.45 106.14,-3.92 8.93,-1.34 15.57,1.47 17.02,10.56 5.12,32.05 6.01,64.34 2.77,96.62 -0.35,3.51 -4.93,8.29 -8.5,9.39 -5.8,1.8 -12.78,0.67 -15.67,-5.9 -4.34,-9.81 -7.33,-20.2 -11.44,-30.11 -6.36,-15.32 -18.04,-24.96 -34.22,-28.03 -10.54,-2.01 -21.4,-2.69 -32.14,-3.16 -40.38,-1.79 -41.64,-1.68 -42.38,39.19 -1.52,84.74 -1.26,169.5 -2.36,254.24 -0.39,31 7.45,54.96 42.34,61.05 2.57,0.45 5.19,3.13 6.87,5.45 1.74,2.39 3.47,5.74 3.11,8.39 -0.34,2.48 -3.05,5.12 -5.37,6.74 -2.43,1.71 -5.6,3.08 -8.51,3.21 -53.87,2.43 -107.75,3.44 -161.54,-1.47 -5.75,-0.53 -11.2,-4.2 -16.48,-6.29zm1168.04 9.4c-38.51,0 -77.03,0.12 -115.53,-0.07 -12.28,-0.05 -24.8,0.45 -36.21,-5.36 -2.45,-1.25 -5.63,-3.74 -5.86,-5.94 -0.26,-2.49 2.27,-5.38 3.89,-7.91 0.79,-1.22 2.11,-2.53 3.45,-2.92 45.96,-13.67 40.03,-27.77 40.16,-65.84 0.25,-73.95 0.14,-147.89 -0.06,-221.84 -0.05,-15.4 -1.31,-30.78 -1.69,-46.18 -0.48,-18.84 -8.03,-32.41 -26.81,-38.58 -4.25,-1.39 -9.01,-3.37 -11.79,-6.57 -2.75,-3.17 -4.56,-8.29 -4.45,-12.49 0.11,-4.25 3.02,-8.53 8.51,-9 6.12,-0.53 12.25,-1.38 18.37,-1.43 78.57,-0.69 157.12,-1.46 235.68,-1.7 20.9,-0.05 25.22,3.88 25.52,23.48 0.37,24.62 -0.63,49.26 -1.64,73.86 -0.18,4.25 -3.08,9.47 -8.47,9.29 -4.16,-0.16 -10.18,-1.43 -12.01,-4.33 -5.67,-8.96 -9.55,-19.04 -14.46,-28.51 -6.73,-12.98 -17.11,-22.67 -31.49,-24.85 -21.25,-3.22 -42.78,-4.99 -64.26,-6.08 -10.3,-0.51 -17.57,5.66 -17.67,16.92 -0.35,38.48 -0.57,76.95 -0.37,115.41 0.03,6.69 4.74,11.38 11.79,11.52 16.92,0.35 33.85,0.29 50.78,0.18 8.23,-0.06 14.35,-4.75 20.14,-10.02 6.8,-6.19 13.4,-12.68 20.66,-18.29 9.95,-7.66 18.93,-4.47 19.04,7.02 0.31,30.77 -0.09,61.55 -0.57,92.31 -0.04,2.44 -2.66,6.66 -4.49,6.88 -4.16,0.5 -8.8,-0.31 -12.79,-1.81 -2.62,-1.01 -5.24,-3.75 -6.49,-6.37 -10.93,-22.99 -30.27,-27.43 -53.58,-26.99 -48.72,0.91 -45.45,-0.83 -45.57,45.37 -0.07,23.11 -0.4,46.25 0.57,69.32 1.04,24.69 7.75,32.12 31.37,38.92 26.22,7.55 52.25,5.16 77.09,-4.34 18.98,-7.26 35.04,-19.18 41.37,-40.55 2.14,-7.2 5.57,-14.28 9.8,-20.46 2.29,-3.38 7.52,-5.65 12.18,-2.47 2.28,1.55 5.56,4.06 5.57,6.15 0.09,18.39 0.99,36.94 -1.06,55.13 -6.28,55.7 -10.45,48.34 -52.32,49.24 -18.47,0.41 -36.97,0.01 -55.46,-0.01 -16.94,-0.01 -33.89,0 -50.84,0 0,-0.03 0,-0.06 0,-0.1z"/>
   <path class="fil5" d="M4109.71 3065.57c-1.38,-1.99 -2.17,-4.45 -2.3,-7.16 -0.51,-10.73 -0.52,-21.6 0.67,-32.26 9.4,-84.28 16.91,-168.82 29.28,-252.66 18.01,-121.91 39.64,-243.3 59.64,-364.91 25.55,-155.43 65.86,-307.48 112.66,-457.41 63.57,-203.57 150.89,-397.33 260.4,-580.63 99.5,-166.59 218.84,-316.99 366.87,-443.58 25.55,-21.86 50.57,-44.35 78.59,-68.96 -24.49,-0.52 -42.46,8.31 -60.78,14.86 -39.15,14 -77.76,29.5 -116.95,43.33 -105.04,37.07 -203.81,87.18 -299.94,142.87 -118.08,68.39 -223.74,153.14 -323.52,245.58 -35.08,32.49 -68.96,66.22 -97.94,104.51 -10.02,13.24 -12.93,25.55 -6.57,42.37 48.54,128.4 -10.11,628.3 -6.49,772.59 1.24,55.57 -1.94,110.79 -9.74,165.78 -0.37,2.64 -3.1,4.94 -5.31,8.26 -1.29,-4.71 -3.32,-8.74 -3.38,-12.8 -2.26,-146.4 -5.39,-286.35 10.8,-432.83 -0.84,-77.03 6.74,-154.05 6.07,-231.08 -0.05,-6.05 1.41,-12.13 2.18,-18.19 -0.81,-9.2 -1.57,-18.42 -2.44,-27.63 -8.66,-92.51 -38.39,-176.35 -94.34,-251.98 -65.66,-88.75 -141.27,-167.24 -227.43,-235.52 -120,-95.08 -248.07,-177.49 -388.11,-240.49 -63.22,-28.44 -126.12,-57.6 -191.77,-80.18 -9.56,-3.29 -18.93,-10.66 -32.19,-2.09 16.2,19.03 33.55,36.26 51.84,52.44 56.65,50.15 108.53,104.85 159.98,160.31 126.82,136.71 227.57,291.28 316.27,454.22 53.83,98.87 97.68,202.47 139.66,306.89 82.01,203.96 134.7,415.95 173.77,631.55 29.69,163.91 45.52,329.76 65.38,495.03 2.94,24.48 6.76,48.86 9.39,73.36 1.56,14.46 1.06,22.24 -4.13,26.38l29.9 0z"/>
   <path class="fil6" d="M7736.5 3220.88c-47.53,-4.75 -94.84,-11.96 -142.44,-15.39 -222.98,-16.09 -445.96,-32.33 -669.07,-46.34 -152.33,-9.57 -304.88,-15.7 -457.36,-23.1 -230.98,-11.2 -461.93,-23.2 -692.98,-32.87 -147.89,-6.2 -295.93,-8.89 -443.92,-13.01 -32.37,-0.9 -64.76,-0.99 -97.13,-1.88 -157.22,-4.35 -314.41,-10.5 -471.65,-12.89 -206.63,-3.15 -413.31,-3.38 -619.98,-4.85 -27.14,-0.25 -58.74,-1.29 -84.11,-0.5 -38.55,0.84 -77.11,1.19 -115.66,1.26 -285.32,0.47 -570.55,6.6 -855.72,15.33 -143.34,4.38 -286.68,8.73 -430.01,13.46 -130.98,4.31 -261.98,8.73 -392.93,13.84 -109.38,4.27 -218.73,9.63 -328.1,14.47 -101.65,4.48 -203.37,7.78 -304.95,13.62 -187.76,10.79 -375.42,23.11 -563.12,34.69 -110.82,6.84 -221.74,12.3 -332.46,20.53 -110.32,8.2 -220.44,19.09 -335.13,29.19 64.69,2.56 124.77,-0.49 184.9,-1.57 223.57,-3.99 447.17,-6.89 670.75,-10.05 180.38,-2.55 360.79,-2.51 541.18,-7.15 200.39,-5.16 400.88,-6.74 601.33,-9.54 126.42,-1.78 252.87,-3.35 379.3,-4.29 330.04,-2.46 660.07,-5.07 990.11,-6.62 694.02,-3.25 1388.01,4.05 2082.02,8.16 92.51,0.55 185.05,1.14 277.54,2.96 195.78,3.84 391.52,10.02 587.32,12.43 235.94,2.9 471.86,5.96 707.75,11.99 129.38,3.31 258.79,8.46 398.98,3.71 -35.3,-2.27 -59.95,-3.14 -84.45,-5.59z"/>
  </g>
 </g>
</svg>
